<svg width="121" height="35" viewBox="0 0 121 35" fill="none" xmlns="http://www.w3.org/2000/svg">
<path fill-rule="evenodd" clip-rule="evenodd" d="M0.539062 20.6771C2.0668 20.4035 4.63366 19.8389 5.20182 19.2554C5.76747 18.6744 6.06796 17.9429 6.06796 17.1398V1.28711H9.50475V17.1398C9.50475 18.0295 9.33556 18.8664 9.00099 19.6293C8.66133 20.4035 8.1929 21.0848 7.60707 21.657C7.01491 22.2355 6.31796 22.6997 5.53767 23.0361C4.96698 23.2832 2.212 23.8491 0.540325 24.1013V20.6771H0.539062Z" fill="black"/>
<path fill-rule="evenodd" clip-rule="evenodd" d="M21.1372 23.5398C20.2419 23.5398 19.3998 23.3718 18.6322 23.038C17.8519 22.7004 17.1637 22.2387 16.5868 21.664C16.0085 21.0906 15.5438 20.4067 15.2043 19.63C14.8684 18.8684 14.6992 18.0302 14.6992 17.1406V7.68713C14.6992 6.78495 14.8633 5.9706 15.203 5.19767C15.5426 4.42097 16.0072 3.73712 16.5855 3.16494C17.1625 2.59151 17.8506 2.12976 18.6322 1.78972C19.3998 1.4572 20.2432 1.28906 21.1372 1.28906H24.9426C25.8378 1.28906 26.6812 1.4572 27.4476 1.78972C28.2292 2.12851 28.9172 2.59026 29.4943 3.16368C30.0713 3.73712 30.5372 4.42097 30.8781 5.19767C31.2126 5.96182 31.3818 6.80001 31.3818 7.68713V17.1406C31.3818 18.0289 31.2126 18.8659 30.8781 19.63C30.5372 20.4067 30.0726 21.0906 29.4955 21.664C28.9172 22.2387 28.2292 22.7004 27.4501 23.038C26.6762 23.373 25.8568 23.5374 24.9426 23.5398H21.1385H21.1372ZM21.1295 4.70329C20.2799 4.70956 19.5552 5.00318 18.9781 5.57661C18.4036 6.14878 18.0994 6.87906 18.0994 7.68713V17.1406C18.0994 17.9448 18.3986 18.6764 18.9655 19.2561C19.5413 19.8471 20.2925 20.1595 21.1372 20.1595H24.9426C25.786 20.1595 26.5373 19.8471 27.1143 19.2561C27.6812 18.6726 27.9804 17.9411 27.9804 17.1393V7.68587C27.9804 6.87906 27.6774 6.15004 27.1042 5.57661C26.5233 5.00067 25.7999 4.70705 24.9502 4.70078H21.1284L21.1295 4.70329Z" fill="black"/>
<path fill-rule="evenodd" clip-rule="evenodd" d="M55.5702 23.5399V7.68713C55.5702 6.87906 55.2671 6.15004 54.6927 5.57786C54.1156 5.00444 53.3695 4.70329 52.5323 4.70329C51.6953 4.70329 50.9491 5.00444 50.3733 5.57661C49.7976 6.14878 49.4946 6.87906 49.4946 7.68838V23.5411H46.0944V7.68838C46.0944 6.88032 45.7914 6.15004 45.2169 5.57786C44.6399 5.00568 43.8937 4.70329 43.0565 4.70329C42.2195 4.70329 41.4721 5.00568 40.8963 5.57661C40.3205 6.15004 40.0175 6.88032 40.0175 7.68713V23.5399H36.582V7.68713C36.582 6.7837 36.7461 5.96935 37.0858 5.19767C37.4254 4.42348 37.8938 3.74213 38.4797 3.17247C39.0693 2.59527 39.765 2.13101 40.5516 1.78972C41.318 1.4572 42.1614 1.28906 43.0578 1.28906C43.8141 1.28906 44.5439 1.41328 45.2245 1.65922C45.9113 1.90641 46.5288 2.25021 47.0615 2.6806L47.766 3.25027L48.4794 2.6944C49.04 2.25775 49.6751 1.90892 50.3683 1.66047C51.0501 1.41454 51.7798 1.29032 52.5361 1.29032C53.4326 1.29032 54.2747 1.45846 55.0411 1.79097C55.8226 2.12976 56.5108 2.59277 57.0891 3.1662C57.6648 3.73837 58.1294 4.42222 58.4716 5.20018C58.8062 5.96433 58.9754 6.80251 58.9754 7.68964V23.5424H55.5752L55.5702 23.5399Z" fill="black"/>
<path fill-rule="evenodd" clip-rule="evenodd" d="M64.168 23.5392V1.28711H74.4114C75.3078 1.28711 76.1499 1.45525 76.9176 1.78776C77.6992 2.12655 78.3873 2.58831 78.963 3.16173C79.5388 3.73391 80.0046 4.41776 80.3471 5.19571C80.6816 5.95861 80.8509 6.7968 80.8509 7.68517C80.8509 8.43552 80.7253 9.16079 80.4782 9.83963C80.2271 10.5285 79.8759 11.1596 79.4365 11.7155L78.886 12.4131L79.4365 13.1108C79.8772 13.6679 80.2271 14.2991 80.4782 14.9867C80.7253 15.6642 80.8509 16.3895 80.8509 17.1398C80.8509 18.0295 80.6816 18.8664 80.3471 19.6293C80.0046 20.4073 79.5401 21.0911 78.9643 21.6633C78.3861 22.238 77.6979 22.6997 76.9189 23.0372C76.1398 23.3748 75.3204 23.5379 74.4114 23.5392H64.1692H64.168ZM67.5681 20.1601H74.4114C75.2573 20.1601 76.0073 19.8464 76.583 19.2554C77.15 18.6757 77.4492 17.9442 77.4492 17.1398C77.4492 16.3355 77.1462 15.5664 76.5717 14.9942C75.9946 14.422 75.2498 14.1208 74.4126 14.1197H67.5681V20.1588V20.1601ZM67.5681 10.7054H74.4114C75.251 10.7054 75.9972 10.403 76.5704 9.83208C77.1449 9.26116 77.4492 8.51834 77.4492 7.68517C77.4492 6.85201 77.1462 6.14683 76.5717 5.57465C75.9959 5.00374 75.2498 4.70134 74.4126 4.70008H67.5681V10.7042V10.7054Z" fill="black"/>
<path fill-rule="evenodd" clip-rule="evenodd" d="M103.162 23.5392V13.1259L98.043 1.28711H101.364L104.838 11.053L108.357 1.28711H111.682L106.562 13.1259V23.5392H103.162Z" fill="black"/>
<path fill-rule="evenodd" clip-rule="evenodd" d="M97.3376 23.5392L90.2481 1.28711L83.1602 23.5392H97.3376Z" fill="black"/>
<g style="mix-blend-mode:multiply">
<path d="M92.0453 6.93608L90.2445 1.28711L88.4453 6.93608L90.2445 12.5851L92.0453 6.93608Z" fill="#F48120"/>
</g>
<g style="mix-blend-mode:multiply">
<path d="M88.445 6.93555L83.1562 23.5386H86.7555L90.2442 12.5845L88.445 6.93555Z" fill="#F05A22"/>
</g>
<g style="mix-blend-mode:multiply">
<path d="M90.2461 12.5845L93.7356 23.5386H97.3356L92.0461 6.93555L90.2461 12.5845Z" fill="#F05A22"/>
</g>
<g style="mix-blend-mode:multiply">
<path d="M86.7617 23.5401H93.74L90.2505 12.5859L86.7617 23.5401Z" fill="#EE4023"/>
</g>
<path d="M117.613 0.833348C119.697 0.666463 121.16 2.81965 120.195 4.67043C119.299 6.3857 116.873 6.57141 115.722 5.00671C114.519 3.36923 115.578 0.996467 117.613 0.833348ZM117.673 1.13198C115.9 1.26373 114.916 3.27388 115.907 4.74446C116.883 6.19247 119.074 6.09836 119.906 4.56377C120.787 2.94387 119.515 0.995213 117.672 1.13198H117.673Z" fill="black"/>
<path d="M116.797 1.94156C117.164 1.95537 117.545 1.92274 117.91 1.94156C118.374 1.96415 118.871 2.07708 119.067 2.54636C119.287 3.07337 119.074 3.68821 118.521 3.88395L119.184 4.84886H118.723L118.111 3.97303H117.219V4.84886H116.797V1.94156ZM117.219 3.61292H118.071C118.607 3.61292 118.929 2.99682 118.602 2.56769C118.51 2.44598 118.238 2.31925 118.091 2.31925H117.219V3.61292Z" fill="black"/>
<path d="M6.73838 32.113H8.7013L7.72382 29.6256L6.73838 32.113ZM10.092 34.0997H9.48805L8.90792 32.6296H6.53176L5.95163 34.0997H5.34766L7.72382 28.3223L10.092 34.0997ZM17.8699 32.4468C17.6633 32.9713 17.3375 33.3845 16.8845 33.7024C16.4156 34.0203 15.915 34.1792 15.3666 34.1792C14.6117 34.1792 13.9759 33.909 13.4514 33.3527C12.9269 32.8123 12.6726 32.1686 12.6726 31.4057C12.6726 31.0322 12.7362 30.6746 12.8792 30.3408C13.0143 30.007 13.205 29.705 13.4514 29.4507C13.9759 28.9024 14.6117 28.6243 15.3666 28.6243C15.915 28.6243 16.4156 28.7832 16.8766 29.1011C17.3295 29.419 17.6554 29.8322 17.862 30.3408H17.2501C16.956 29.8084 16.5189 29.4587 15.9388 29.2839C15.7481 29.2282 15.5335 29.1964 15.2872 29.1964C15.0328 29.1964 14.7785 29.26 14.5242 29.3792C14.262 29.4984 14.0315 29.6574 13.8408 29.856C13.4276 30.2852 13.2289 30.8017 13.2289 31.4057C13.2289 32.0097 13.4276 32.5262 13.8408 32.9474C14.262 33.3925 14.7706 33.607 15.3666 33.607C15.764 33.607 16.1375 33.5037 16.4713 33.2892C16.805 33.0825 17.0673 32.7964 17.258 32.4468H17.8699ZM19.2568 34.0997H18.7005V28.6958H19.2568V34.0997ZM23.6573 34.0997H20.4467V28.6958H23.6573V29.2123H21.003V31.1355H23.5778V31.66H21.003V33.5832H23.6573V34.0997ZM25.4033 33.5435H27.3344V34.0997H25.4033H25.1252H24.847V28.6958H25.4033V33.5435ZM30.7893 34.0997H30.233V28.6958H30.7893V31.1276H33.245V28.6958H33.8012V34.0997H33.245V31.6839H30.7893V34.0997ZM35.5466 31.4296H36.8023C37.1122 31.4296 37.3665 31.3262 37.5731 31.1117C37.7798 30.8971 37.8831 30.6349 37.8831 30.317C37.8831 29.9991 37.7798 29.7448 37.589 29.5382C37.3904 29.3315 37.1281 29.2282 36.8023 29.2282H35.5466V31.4296ZM38.4394 30.3249C38.4394 30.8017 38.2645 31.1991 37.9308 31.509C37.6367 31.7872 37.2791 31.9382 36.8579 31.962L38.5268 34.0997H37.7798L36.1904 31.962H35.5466V34.0997H34.9904V28.6958H36.7228C37.1996 28.6958 37.6049 28.8547 37.9308 29.1567C38.2645 29.4666 38.4394 29.864 38.4394 30.3249ZM46.7875 31.5726L46.7319 31.9064C46.6127 32.566 46.2869 33.1064 45.7624 33.5355C45.2379 33.9567 44.6498 34.1633 43.9981 34.1633C43.6167 34.1633 43.2511 34.0918 42.9174 33.9488C42.5756 33.8057 42.2816 33.607 42.0273 33.3527C41.773 33.0984 41.5743 32.8044 41.4313 32.4627C41.2882 32.1289 41.2167 31.7633 41.2167 31.3819C41.2167 31.0004 41.2882 30.6348 41.4313 30.2931C41.5743 29.9594 41.773 29.6653 42.0273 29.411C42.2816 29.1567 42.5756 28.958 42.9174 28.815C43.2511 28.6719 43.5928 28.5925 43.9425 28.5925C44.5862 28.5925 45.1584 28.7832 45.6511 29.1488C46.1438 29.5143 46.4856 29.9911 46.6683 30.5872H46.0803C45.9054 30.1501 45.6352 29.8084 45.2538 29.5461C44.8803 29.2839 44.4591 29.1488 43.9981 29.1488C43.3783 29.1488 42.8538 29.3713 42.4246 29.8004C41.9875 30.2375 41.773 30.762 41.773 31.3739C41.773 31.9858 41.9876 32.5183 42.4167 32.9554C42.8538 33.3925 43.3783 33.607 43.9981 33.607C44.4829 33.607 44.9279 33.4719 45.3253 33.1858C45.7226 32.9077 46.0008 32.5262 46.1677 32.0574H43.9743V31.5726H46.7875ZM48.2976 31.4296H49.5532C49.8631 31.4296 50.1174 31.3262 50.3241 31.1117C50.5307 30.8971 50.634 30.6349 50.634 30.317C50.634 29.9991 50.5307 29.7448 50.3399 29.5382C50.1413 29.3315 49.879 29.2282 49.5532 29.2282H48.2976V31.4296ZM51.1903 30.3249C51.1903 30.8017 51.0154 31.1991 50.6817 31.509C50.3876 31.7872 50.03 31.9382 49.6088 31.962L51.2777 34.0997H50.5307L48.9413 31.962H48.2976V34.0997H47.7413V28.6958H49.4737C49.9505 28.6958 50.3558 28.8547 50.6817 29.1567C51.0154 29.4666 51.1903 29.864 51.1903 30.3249ZM56.8243 31.3819C56.8243 30.7779 56.6018 30.2534 56.1727 29.8163C55.7356 29.3872 55.2111 29.1647 54.5992 29.1647C53.9872 29.1647 53.4627 29.3872 53.0336 29.8163C52.5965 30.2534 52.3819 30.7779 52.3819 31.3819C52.3819 32.0017 52.5965 32.5262 53.0336 32.9554C53.4627 33.3925 53.9872 33.607 54.5992 33.607C55.2111 33.607 55.7356 33.3925 56.1727 32.9554C56.6018 32.5262 56.8243 32.0017 56.8243 31.3819ZM57.3806 31.3819C57.3806 31.7633 57.3011 32.1289 57.1581 32.4627C57.015 32.8044 56.8164 33.0984 56.5621 33.3527C56.3078 33.607 56.0137 33.8057 55.6799 33.9488C55.3382 34.0918 54.9806 34.1633 54.5992 34.1633C54.2177 34.1633 53.8521 34.0918 53.5184 33.9488C53.1846 33.8057 52.8905 33.607 52.6362 33.3527C52.3819 33.0984 52.1833 32.8044 52.0402 32.4627C51.8972 32.1289 51.8256 31.7633 51.8256 31.3819C51.8256 31.0004 51.8972 30.6428 52.0402 30.3011C52.1833 29.9673 52.3819 29.6733 52.6362 29.419C52.8905 29.1726 53.1846 28.9739 53.5184 28.8309C53.8521 28.6878 54.2177 28.6084 54.5992 28.6084C54.9806 28.6084 55.3382 28.6878 55.6799 28.8309C56.0137 28.9739 56.3078 29.1726 56.5621 29.419C56.8164 29.6733 57.015 29.9673 57.1581 30.3011C57.3011 30.6428 57.3806 31.0004 57.3806 31.3819ZM62.2447 32.3117C62.2447 32.8997 62.0539 33.3607 61.6725 33.6945C61.3069 34.0123 60.8301 34.1713 60.2341 34.1713C59.6301 34.1713 59.1453 34.0123 58.7877 33.6945C58.4062 33.3607 58.2155 32.8997 58.2155 32.3117V28.6958H58.7718V32.3911C58.7718 32.8044 58.9149 33.1143 59.2089 33.3289C59.4632 33.5196 59.8049 33.615 60.2341 33.615C60.8937 33.615 61.3387 33.3925 61.5692 32.9474C61.6486 32.7964 61.6884 32.6137 61.6884 32.3911V28.6958H62.2447V32.3117ZM63.8734 31.4216H65.129C65.439 31.4216 65.6933 31.3183 65.8999 31.1117C66.1065 30.8971 66.2098 30.6348 66.2098 30.309C66.2098 29.9911 66.1065 29.7368 65.9158 29.5302C65.7171 29.3315 65.4549 29.2282 65.129 29.2282H63.8734V31.4216ZM66.7661 30.3249C66.7661 30.8017 66.5913 31.1911 66.2575 31.509C65.9317 31.811 65.5264 31.962 65.0496 31.962H63.8734V34.0997H63.3171V28.6958H65.0496C65.5264 28.6958 65.9237 28.8468 66.2575 29.1488C66.5913 29.4587 66.7661 29.8481 66.7661 30.3249ZM74.6244 32.4468C74.4177 32.9713 74.0919 33.3845 73.6389 33.7024C73.1701 34.0203 72.6694 34.1792 72.1211 34.1792C71.3661 34.1792 70.7303 33.909 70.2058 33.3527C69.6813 32.8123 69.427 32.1686 69.427 31.4057C69.427 31.0322 69.4906 30.6746 69.6336 30.3408C69.7687 30.007 69.9595 29.705 70.2058 29.4507C70.7303 28.9024 71.3661 28.6243 72.1211 28.6243C72.6694 28.6243 73.1701 28.7832 73.631 29.1011C74.084 29.419 74.4098 29.8322 74.6164 30.3408H74.0045C73.7105 29.8084 73.2734 29.4587 72.6932 29.2839C72.5025 29.2282 72.2879 29.1964 72.0416 29.1964C71.7873 29.1964 71.533 29.26 71.2787 29.3792C71.0164 29.4984 70.786 29.6574 70.5952 29.856C70.182 30.2852 69.9833 30.8017 69.9833 31.4057C69.9833 32.0097 70.182 32.5262 70.5952 32.9474C71.0164 33.3925 71.525 33.607 72.1211 33.607C72.5184 33.607 72.8919 33.5037 73.2257 33.2892C73.5595 33.0825 73.8217 32.7964 74.0124 32.4468H74.6244ZM80.2149 31.3819C80.2149 30.7779 79.9924 30.2534 79.5636 29.8163C79.1265 29.3872 78.602 29.1647 77.9901 29.1647C77.3782 29.1647 76.8537 29.3872 76.4245 29.8163C75.9874 30.2534 75.7729 30.7779 75.7729 31.3819C75.7729 32.0017 75.9874 32.5262 76.4245 32.9554C76.8537 33.3925 77.3782 33.607 77.9901 33.607C78.602 33.607 79.1265 33.3925 79.5636 32.9554C79.9924 32.5262 80.2149 32.0017 80.2149 31.3819ZM80.7712 31.3819C80.7712 31.7633 80.6918 32.1289 80.5487 32.4627C80.4057 32.8044 80.207 33.0984 79.953 33.3527C79.6987 33.607 79.4047 33.8057 79.0709 33.9488C78.7292 34.0918 78.3715 34.1633 77.9901 34.1633C77.6086 34.1633 77.2431 34.0918 76.9093 33.9488C76.5755 33.8057 76.2815 33.607 76.0272 33.3527C75.7729 33.0984 75.5742 32.8044 75.4311 32.4627C75.2881 32.1289 75.2166 31.7633 75.2166 31.3819C75.2166 31.0004 75.2881 30.6428 75.4311 30.3011C75.5742 29.9673 75.7729 29.6733 76.0272 29.419C76.2815 29.1726 76.5755 28.9739 76.9093 28.8309C77.2431 28.6878 77.6086 28.6084 77.9901 28.6084C78.3715 28.6084 78.7292 28.6878 79.0709 28.8309C79.4047 28.9739 79.6987 29.1726 79.953 29.419C80.207 29.6733 80.4057 29.9673 80.5487 30.3011C80.6918 30.6428 80.7712 31.0004 80.7712 31.3819ZM86.7084 34.0997L85.8661 30.2534L84.2449 34.4176L82.6157 30.2534L81.7813 34.0997H81.2091L82.4727 28.3382L84.2449 32.9633L86.0171 28.3382L87.2727 34.0997H86.7084ZM88.5061 31.4216H89.7617C90.0716 31.4216 90.3259 31.3183 90.5326 31.1117C90.7392 30.8971 90.8425 30.6348 90.8425 30.309C90.8425 29.9911 90.7392 29.7368 90.5484 29.5302C90.3498 29.3315 90.0875 29.2282 89.7617 29.2282H88.5061V31.4216ZM91.3988 30.3249C91.3988 30.8017 91.2239 31.1911 90.8902 31.509C90.5643 31.811 90.159 31.962 89.6822 31.962H88.5061V34.0997H87.9498V28.6958H89.6822C90.159 28.6958 90.5564 28.8468 90.8902 29.1488C91.2239 29.4587 91.3988 29.8481 91.3988 30.3249ZM92.4557 32.113H94.4186L93.4412 29.6256L92.4557 32.113ZM95.8094 34.0997H95.2054L94.6253 32.6296H92.2491L91.669 34.0997H91.065L93.4412 28.3223L95.8094 34.0997ZM97.0428 30.1183V34.0997H96.4865V28.3541L99.5222 32.6693V28.6958H100.079V34.4335L97.0428 30.1183ZM103.357 31.5567V34.0997H102.801V31.5647L100.751 28.6958H101.466L103.079 31.0084L104.693 28.6958H105.4L103.357 31.5567Z" fill="black"/>
</svg>
